<svg width="28" height="30" viewBox="0 0 28 30" fill="none" xmlns="http://www.w3.org/2000/svg">
<path fill-rule="evenodd" clip-rule="evenodd" d="M2.65415 20.6237C1.89428 22.5477 1.23788 24.5104 0.687718 26.5034C-0.16486 30.0503 -0.783667 30.8415 2.37912 29.1635C5.52816 27.4719 20.7783 19.1368 24.1886 17.2815C28.6165 14.8668 28.6716 15.0442 23.9411 12.4795C20.352 10.5287 5.26689 2.39817 2.37912 0.815715C-0.508642 -0.780385 -0.16486 -0.0710067 0.687718 3.47588C0.962744 4.6218 1.6228 6.59987 2.6954 9.4101C3.05933 10.3697 3.66494 11.2208 4.45451 11.8823C5.24408 12.5438 6.19128 12.9936 7.20582 13.1889L16.0616 14.8668C16.1018 14.8668 16.1402 14.8827 16.1686 14.9108C16.197 14.9389 16.2129 14.9771 16.2129 15.0169C16.2129 15.0567 16.197 15.0949 16.1686 15.123C16.1402 15.1512 16.1018 15.167 16.0616 15.167L7.19207 16.8449C6.17104 17.0372 5.21715 17.4872 4.42233 18.1514C3.62751 18.8157 3.01855 19.6718 2.65415 20.6374V20.6237Z" fill="white"/>
</svg>
